<?xml version="1.0" encoding="UTF-8" standalone="no"?>
<!DOCTYPE svg PUBLIC "-//W3C//DTD SVG 1.1//EN" "http://www.w3.org/Graphics/SVG/1.1/DTD/svg11.dtd">
<svg xmlns="http://www.w3.org/2000/svg" xmlns:xl="http://www.w3.org/1999/xlink" xmlns:dc="http://purl.org/dc/elements/1.1/" version="1.1" viewBox="27 202 494 162" width="494" height="162">
  <defs/>
  <g id="piston" stroke-dasharray="none" stroke="none" fill="none" stroke-opacity="1" fill-opacity="1">
    <title>piston</title>
    <rect fill="white" x="27" y="202" width="494" height="162"/>
    <g id="piston_device">
      <title>device</title>
      <g id="Graphic_2">
        <title>cylinder</title>
        <path d="M 38.5 219 L 509.5 219 C 510.0523 219 510.5 219.44772 510.5 220 L 510.5 328.6 C 510.5 329.1523 510.0523 329.6 509.5 329.6 L 38.5 329.6 C 37.947715 329.6 37.5 329.1523 37.5 328.6 L 37.5 220 C 37.5 219.44772 37.947715 219 38.5 219 Z" fill="white"/>
        <path d="M 38.5 219 L 509.5 219 C 510.0523 219 510.5 219.44772 510.5 220 L 510.5 328.6 C 510.5 329.1523 510.0523 329.6 509.5 329.6 L 38.5 329.6 C 37.947715 329.6 37.5 329.1523 37.5 328.6 L 37.5 220 C 37.5 219.44772 37.947715 219 38.5 219 Z" stroke="black" stroke-linecap="square" stroke-linejoin="miter" stroke-width="8"/>
      </g>
      <g id="Line_4">
        <title>piston</title>
        <line x1="247.6219" y1="223.2" x2="247.6219" y2="325.4158" stroke="#ca453e" stroke-linecap="butt" stroke-linejoin="round" stroke-width="30"/>
      </g>
      <g id="Group_69">
        <title>gas₁</title>
        <g id="Graphic_65">
          <path d="M 118.46812 271.74103 L 118.89478 273.03744 C 118.52281 273.1523 118.13034 273.22342 117.71735 273.25077 C 117.30435 273.27812 116.85444 273.2918 116.3676 273.2918 C 117.36863 273.7513 117.86914 274.47607 117.86914 275.46616 C 117.86914 276.3195 117.58333 277.0224 117.0117 277.57487 C 116.44008 278.12736 115.64282 278.4036 114.61991 278.4036 C 114.33 278.4036 114.08795 278.38992 113.89376 278.36257 C 113.69957 278.3352 113.51222 278.2942 113.3317 278.2395 C 113.20042 278.33248 113.09239 278.4542 113.0076 278.60462 C 112.92282 278.75505 112.88042 278.9123 112.88042 279.0764 C 112.88042 279.28428 112.96247 279.45658 113.12658 279.59334 C 113.29068 279.7301 113.59427 279.79846 114.03735 279.79846 L 115.59632 279.79846 C 116.17615 279.79846 116.6958 279.9024 117.1553 280.11026 C 117.61478 280.31812 117.97854 280.59846 118.24658 280.9513 C 118.51461 281.3041 118.64863 281.70205 118.64863 282.14513 C 118.64863 282.993 118.28897 283.64393 117.56965 284.09795 C 116.85033 284.55197 115.83428 284.77898 114.52145 284.77898 C 113.60247 284.77898 112.87769 284.68462 112.34709 284.4959 C 111.81649 284.30718 111.43769 284.02 111.21068 283.63436 C 110.98367 283.24872 110.87017 282.76325 110.87017 282.17795 L 112.11735 282.17795 C 112.11735 282.51163 112.18299 282.78786 112.31427 283.00667 C 112.44555 283.22547 112.6835 283.3882 113.02812 283.49487 C 113.37273 283.60154 113.86777 283.65487 114.51324 283.65487 C 115.46504 283.65487 116.15974 283.5359 116.59735 283.29795 C 117.03496 283.06 117.25376 282.7058 117.25376 282.2354 C 117.25376 281.82513 117.06778 281.51607 116.69581 281.3082 C 116.32384 281.10034 115.85889 280.9964 115.30094 280.9964 L 113.75837 280.9964 C 113.00897 280.9964 112.45923 280.8323 112.10914 280.5041 C 111.75905 280.1759 111.58401 279.79847 111.58401 279.3718 C 111.58401 278.78103 111.90128 278.27778 112.53581 277.86205 C 111.5676 277.34786 111.0835 276.55197 111.0835 275.47436 C 111.0835 274.88906 111.22846 274.37077 111.51837 273.9195 C 111.80829 273.4682 112.21307 273.11402 112.73273 272.85693 C 113.25239 272.59983 113.85136 272.4713 114.52965 272.4713 C 115.25718 272.4713 115.84794 272.4412 116.30196 272.38103 C 116.75598 272.32086 117.14572 272.23607 117.47119 272.12667 C 117.79666 272.01727 118.12897 271.88872 118.46812 271.74103 Z M 114.52965 273.4805 C 113.83495 273.4805 113.32213 273.66923 112.99119 274.04667 C 112.66025 274.4241 112.49478 274.9 112.49478 275.47436 C 112.49478 276.05966 112.66299 276.54103 112.9994 276.91846 C 113.33581 277.2959 113.85683 277.48462 114.56247 277.48462 C 115.16966 277.48462 115.63461 277.30684 115.95735 276.9513 C 116.28008 276.59573 116.44145 276.1007 116.44145 275.46616 C 116.44145 274.1424 115.80419 273.4805 114.52965 273.4805 Z" fill="black"/>
        </g>
        <g id="Graphic_66">
          <path d="M 127.47735 279.41282 C 127.47735 279.7629 127.53478 280.01727 127.64965 280.1759 C 127.76453 280.33453 127.9423 280.4494 128.18299 280.5205 L 127.84658 281.48872 C 127.47461 281.4395 127.14914 281.3205 126.87017 281.1318 C 126.59119 280.94308 126.3888 280.65727 126.26299 280.27436 C 125.95119 280.67368 125.56145 280.9759 125.09376 281.18103 C 124.62606 281.38616 124.11325 281.48872 123.5553 281.48872 C 122.69102 281.48872 122.01 281.2453 121.51222 280.75846 C 121.01444 280.27162 120.76555 279.62616 120.76555 278.82205 C 120.76555 277.93043 121.1129 277.24667 121.8076 276.77077 C 122.50231 276.29487 123.50606 276.05693 124.81889 276.05693 L 126.09068 276.05693 L 126.09068 275.33487 C 126.09068 274.71128 125.9088 274.26958 125.54504 274.00975 C 125.18128 273.7499 124.67667 273.62 124.0312 273.62 C 123.74675 273.62 123.41308 273.6542 123.03017 273.72257 C 122.64726 273.79094 122.23154 273.90445 121.78299 274.06308 L 121.42196 273.02103 C 121.9471 272.8241 122.4435 272.68462 122.9112 272.60257 C 123.37889 272.5205 123.82333 272.4795 124.24453 272.4795 C 125.31667 272.4795 126.1235 272.7311 126.66504 273.23436 C 127.20658 273.7376 127.47735 274.4159 127.47735 275.26923 Z M 123.90812 280.43846 C 124.33478 280.43846 124.74093 280.33043 125.12658 280.11436 C 125.51222 279.8983 125.83358 279.5988 126.09068 279.2159 L 126.09068 276.9923 L 124.8435 276.9923 C 123.8917 276.9923 123.22025 277.1564 122.82914 277.48462 C 122.43803 277.81282 122.24247 278.25316 122.24247 278.80564 C 122.24247 279.8942 122.79768 280.43846 123.90812 280.43846 Z" fill="black"/>
        </g>
        <g id="Graphic_67">
          <path d="M 134.07427 280.3482 C 134.74162 280.3482 135.26675 280.22513 135.64965 279.97898 C 136.03256 279.73282 136.22401 279.39915 136.22401 278.97795 C 136.22401 278.72086 136.17615 278.4966 136.08042 278.30513 C 135.9847 278.11368 135.78914 277.94 135.49376 277.7841 C 135.19837 277.6282 134.74436 277.47368 134.1317 277.3205 C 133.53546 277.17282 133.01718 277.0019 132.57683 276.8077 C 132.13649 276.6135 131.79461 276.36052 131.5512 276.04872 C 131.30777 275.73692 131.18606 275.33214 131.18606 274.83436 C 131.18606 274.10684 131.48965 273.53248 132.09683 273.1113 C 132.70402 272.6901 133.49444 272.4795 134.46812 272.4795 C 135.16282 272.4795 135.76863 272.57248 136.28555 272.75846 C 136.80248 272.94445 137.24145 273.16872 137.60247 273.4313 L 136.9953 274.36667 C 136.67256 274.1424 136.3129 273.95778 135.91632 273.81282 C 135.51974 273.66786 135.04248 273.5954 134.48453 273.5954 C 133.80623 273.5954 133.32487 273.7007 133.04042 273.9113 C 132.75598 274.1219 132.61376 274.39402 132.61376 274.7277 C 132.61376 274.9848 132.6835 275.19675 132.82299 275.3636 C 132.96248 275.53043 133.19905 275.6795 133.53273 275.81077 C 133.86641 275.94205 134.32589 276.087 134.9112 276.24564 C 135.47461 276.3988 135.96692 276.57932 136.38812 276.78718 C 136.80931 276.99505 137.13615 277.26718 137.36863 277.6036 C 137.60111 277.94 137.71735 278.37624 137.71735 278.9123 C 137.71735 279.52496 137.5423 280.02137 137.19222 280.40154 C 136.84213 280.7817 136.38949 281.05795 135.83427 281.23026 C 135.27905 281.40257 134.6924 281.48872 134.07427 281.48872 C 133.29204 281.48872 132.62607 281.37522 132.07632 281.1482 C 131.52657 280.9212 131.06572 280.64633 130.69376 280.3236 L 131.48145 279.41282 C 131.8206 279.6918 132.21034 279.91744 132.65068 280.08975 C 133.09102 280.26205 133.56555 280.3482 134.07427 280.3482 Z" fill="black"/>
        </g>
        <g id="Graphic_68">
          <path d="M 144.75735 284.46718 L 144.75735 280.54513 L 143.18196 281.40667 L 142.6076 280.58616 L 144.97889 279.1995 L 145.90606 279.1995 L 145.90606 284.46718 Z" fill="black"/>
        </g>
      </g>
      <g id="Group_74">
        <title>gas₂</title>
        <g id="Graphic_70">
          <path d="M 381.9313 271.74103 L 382.35797 273.03744 C 381.986 273.1523 381.59353 273.22342 381.18054 273.25077 C 380.76754 273.27812 380.31763 273.2918 379.8308 273.2918 C 380.83183 273.7513 381.33233 274.47607 381.33233 275.46616 C 381.33233 276.3195 381.04652 277.0224 380.4749 277.57487 C 379.90327 278.12736 379.106 278.4036 378.0831 278.4036 C 377.7932 278.4036 377.55114 278.38992 377.35695 278.36257 C 377.16276 278.3352 376.9754 278.2942 376.7949 278.2395 C 376.6636 278.33248 376.5556 278.4542 376.4708 278.60462 C 376.386 278.75505 376.3436 278.9123 376.3436 279.0764 C 376.3436 279.28428 376.42567 279.45658 376.58977 279.59334 C 376.75387 279.7301 377.05746 279.79846 377.50054 279.79846 L 379.0595 279.79846 C 379.63934 279.79846 380.159 279.9024 380.6185 280.11026 C 381.07798 280.31812 381.44173 280.59846 381.70977 280.9513 C 381.9778 281.3041 382.1118 281.70205 382.1118 282.14513 C 382.1118 282.993 381.75217 283.64393 381.03285 284.09795 C 380.31353 284.55197 379.29747 284.77898 377.98464 284.77898 C 377.06566 284.77898 376.3409 284.68462 375.8103 284.4959 C 375.2797 284.30718 374.9009 284.02 374.67387 283.63436 C 374.44686 283.24872 374.33336 282.76325 374.33336 282.17795 L 375.58054 282.17795 C 375.58054 282.51163 375.6462 282.78786 375.77746 283.00667 C 375.90874 283.22547 376.1467 283.3882 376.4913 283.49487 C 376.83592 283.60154 377.33096 283.65487 377.97644 283.65487 C 378.92824 283.65487 379.62293 283.5359 380.06054 283.29795 C 380.49815 283.06 380.71695 282.7058 380.71695 282.2354 C 380.71695 281.82513 380.53097 281.51607 380.159 281.3082 C 379.78703 281.10034 379.3221 280.9964 378.76413 280.9964 L 377.22156 280.9964 C 376.47216 280.9964 375.9224 280.8323 375.57233 280.5041 C 375.22225 280.1759 375.0472 279.79847 375.0472 279.3718 C 375.0472 278.78103 375.36447 278.27778 375.999 277.86205 C 375.0308 277.34786 374.5467 276.55197 374.5467 275.47436 C 374.5467 274.88906 374.69165 274.37077 374.98156 273.9195 C 375.2715 273.4682 375.67626 273.11402 376.19592 272.85693 C 376.7156 272.59983 377.31455 272.4713 377.99285 272.4713 C 378.72037 272.4713 379.31113 272.4412 379.76515 272.38103 C 380.21917 272.32086 380.6089 272.23607 380.9344 272.12667 C 381.25986 272.01727 381.59216 271.88872 381.9313 271.74103 Z M 377.99285 273.4805 C 377.29814 273.4805 376.78533 273.66923 376.4544 274.04667 C 376.12344 274.4241 375.95797 274.9 375.95797 275.47436 C 375.95797 276.05966 376.1262 276.54103 376.4626 276.91846 C 376.799 277.2959 377.32 277.48462 378.02567 277.48462 C 378.63285 277.48462 379.0978 277.30684 379.42054 276.9513 C 379.74327 276.59573 379.90464 276.1007 379.90464 275.46616 C 379.90464 274.1424 379.2674 273.4805 377.99285 273.4805 Z" fill="black"/>
        </g>
        <g id="Graphic_71">
          <path d="M 390.94054 279.41282 C 390.94054 279.7629 390.99797 280.01727 391.11285 280.1759 C 391.2277 280.33453 391.4055 280.4494 391.6462 280.5205 L 391.30977 281.48872 C 390.9378 281.4395 390.61233 281.3205 390.33336 281.1318 C 390.0544 280.94308 389.852 280.65727 389.7262 280.27436 C 389.4144 280.67368 389.02464 280.9759 388.55695 281.18103 C 388.08925 281.38616 387.57644 281.48872 387.0185 281.48872 C 386.1542 281.48872 385.4732 281.2453 384.9754 280.75846 C 384.47763 280.27162 384.22874 279.62616 384.22874 278.82205 C 384.22874 277.93043 384.5761 277.24667 385.2708 276.77077 C 385.9655 276.29487 386.96925 276.05693 388.28208 276.05693 L 389.55387 276.05693 L 389.55387 275.33487 C 389.55387 274.71128 389.372 274.26958 389.00823 274.00975 C 388.64447 273.7499 388.13986 273.62 387.4944 273.62 C 387.20994 273.62 386.87627 273.6542 386.49336 273.72257 C 386.11045 273.79094 385.69473 273.90445 385.2462 274.06308 L 384.88515 273.02103 C 385.4103 272.8241 385.9067 272.68462 386.3744 272.60257 C 386.8421 272.5205 387.2865 272.4795 387.7077 272.4795 C 388.77986 272.4795 389.5867 272.7311 390.12823 273.23436 C 390.66977 273.7376 390.94054 274.4159 390.94054 275.26923 Z M 387.3713 280.43846 C 387.79798 280.43846 388.20413 280.33043 388.58977 280.11436 C 388.9754 279.8983 389.29678 279.5988 389.55387 279.2159 L 389.55387 276.9923 L 388.3067 276.9923 C 387.3549 276.9923 386.68345 277.1564 386.29233 277.48462 C 385.9012 277.81282 385.70567 278.25316 385.70567 278.80564 C 385.70567 279.8942 386.26087 280.43846 387.3713 280.43846 Z" fill="black"/>
        </g>
        <g id="Graphic_72">
          <path d="M 397.53746 280.3482 C 398.2048 280.3482 398.72994 280.22513 399.11285 279.97898 C 399.49575 279.73282 399.6872 279.39915 399.6872 278.97795 C 399.6872 278.72086 399.63934 278.4966 399.5436 278.30513 C 399.4479 278.11368 399.25233 277.94 398.95695 277.7841 C 398.66156 277.6282 398.20755 277.47368 397.5949 277.3205 C 396.99865 277.17282 396.48037 277.0019 396.04003 276.8077 C 395.5997 276.6135 395.2578 276.36052 395.0144 276.04872 C 394.77096 275.73692 394.64926 275.33214 394.64926 274.83436 C 394.64926 274.10684 394.95284 273.53248 395.56003 273.1113 C 396.1672 272.6901 396.95763 272.4795 397.9313 272.4795 C 398.626 272.4795 399.2318 272.57248 399.74874 272.75846 C 400.26567 272.94445 400.70464 273.16872 401.06567 273.4313 L 400.4585 274.36667 C 400.13575 274.1424 399.7761 273.95778 399.3795 273.81282 C 398.98293 273.66786 398.50567 273.5954 397.9477 273.5954 C 397.26942 273.5954 396.78806 273.7007 396.5036 273.9113 C 396.21917 274.1219 396.07695 274.39402 396.07695 274.7277 C 396.07695 274.9848 396.1467 275.19675 396.2862 275.3636 C 396.42567 275.53043 396.66225 275.6795 396.9959 275.81077 C 397.3296 275.94205 397.7891 276.087 398.3744 276.24564 C 398.9378 276.3988 399.4301 276.57932 399.8513 276.78718 C 400.2725 276.99505 400.59934 277.26718 400.8318 277.6036 C 401.0643 277.94 401.18054 278.37624 401.18054 278.9123 C 401.18054 279.52496 401.0055 280.02137 400.6554 280.40154 C 400.3053 280.7817 399.8527 281.05795 399.29746 281.23026 C 398.74224 281.40257 398.1556 281.48872 397.53746 281.48872 C 396.75524 281.48872 396.08926 281.37522 395.5395 281.1482 C 394.98977 280.9212 394.5289 280.64633 394.15695 280.3236 L 394.94464 279.41282 C 395.2838 279.6918 395.67353 279.91744 396.11387 280.08975 C 396.5542 280.26205 397.02874 280.3482 397.53746 280.3482 Z" fill="black"/>
        </g>
        <g id="Graphic_73">
          <path d="M 409.9436 280.84872 C 409.9436 281.19334 409.85473 281.4983 409.67695 281.7636 C 409.49917 282.0289 409.2079 282.2942 408.8031 282.5595 C 408.3983 282.8248 407.85405 283.12974 407.1703 283.47436 L 410.0995 283.47436 L 409.96003 284.46718 L 405.4144 284.46718 L 405.4144 283.60564 C 406.28413 283.07504 406.9556 282.6566 407.42874 282.35026 C 407.9019 282.04393 408.22874 281.7841 408.40926 281.57077 C 408.58977 281.35744 408.68003 281.13043 408.68003 280.88975 C 408.68003 280.6436 408.5966 280.4494 408.42977 280.30718 C 408.26293 280.16496 408.0236 280.09385 407.7118 280.09385 C 407.4438 280.09385 407.1785 280.15265 406.9159 280.27026 C 406.65336 280.38787 406.399 280.59436 406.15285 280.88975 L 405.32413 280.25795 C 405.9915 279.48667 406.80105 279.10103 407.75285 279.10103 C 408.453 279.10103 408.9932 279.2624 409.37336 279.58513 C 409.75353 279.90787 409.9436 280.32906 409.9436 280.84872 Z" fill="black"/>
        </g>
      </g>
      <g id="Group_81">
        <title>piston</title>
        <g id="Graphic_75">
          <path d="M 224.09728 344.7795 C 224.8631 344.7795 225.47437 344.96547 225.93113 345.33744 C 226.38788 345.7094 226.71745 346.23316 226.91985 346.90872 C 227.12224 347.5843 227.22344 348.37333 227.22344 349.2759 C 227.22344 350.14565 227.10173 350.92103 226.8583 351.60206 C 226.6149 352.2831 226.24703 352.8178 225.75472 353.20616 C 225.2624 353.59454 224.64156 353.78872 223.89215 353.78872 C 222.94582 353.78872 222.1855 353.45505 221.61113 352.7877 L 221.61113 356.90667 L 220.23267 357.079 L 220.23267 344.96 L 221.406 344.96 L 221.52087 346.16616 C 221.83814 345.7231 222.21557 345.3812 222.65318 345.1405 C 223.0908 344.89983 223.57215 344.7795 224.09728 344.7795 Z M 223.76908 345.8872 C 223.29318 345.8872 222.87199 346.03077 222.5055 346.31795 C 222.139 346.60513 221.84087 346.92376 221.61113 347.27385 L 221.61113 351.55693 C 221.8354 351.8906 222.11848 352.15453 222.46036 352.34872 C 222.80224 352.5429 223.1783 352.64 223.58856 352.64 C 224.30515 352.64 224.84395 352.3665 225.20497 351.8195 C 225.566 351.2725 225.7465 350.4219 225.7465 349.2677 C 225.7465 347.014 225.08737 345.8872 223.76908 345.8872 Z" fill="black"/>
        </g>
        <g id="Graphic_76">
          <path d="M 233.35267 340.91488 C 233.659 340.91488 233.90378 341.00787 234.08703 341.19385 C 234.27027 341.37983 234.3619 341.60684 234.3619 341.87488 C 234.3619 342.15385 234.27027 342.3877 234.08703 342.5764 C 233.90378 342.76513 233.659 342.8595 233.35267 342.8595 C 233.06275 342.8595 232.8248 342.76513 232.63882 342.5764 C 232.45284 342.3877 232.35985 342.15385 232.35985 341.87488 C 232.35985 341.60684 232.45284 341.37983 232.63882 341.19385 C 232.8248 341.00787 233.06275 340.91488 233.35267 340.91488 Z M 234.45215 344.96 L 234.45215 352.50872 L 236.88908 352.50872 L 236.88908 353.6 L 230.40703 353.6 L 230.40703 352.50872 L 233.0737 352.50872 L 233.0737 346.0513 L 230.48908 346.0513 L 230.48908 344.96 Z" fill="black"/>
        </g>
        <g id="Graphic_77">
          <path d="M 242.8624 352.6482 C 243.52976 352.6482 244.0549 352.52513 244.4378 352.279 C 244.8207 352.03282 245.01215 351.69915 245.01215 351.27795 C 245.01215 351.02086 244.9643 350.7966 244.86856 350.60513 C 244.77284 350.4137 244.57728 350.24 244.2819 350.0841 C 243.9865 349.9282 243.5325 349.7737 242.91985 349.6205 C 242.3236 349.47282 241.80532 349.3019 241.36497 349.1077 C 240.92463 348.9135 240.58275 348.6605 240.33933 348.34872 C 240.0959 348.03693 239.9742 347.63214 239.9742 347.13436 C 239.9742 346.40684 240.2778 345.8325 240.88497 345.4113 C 241.49216 344.9901 242.28258 344.7795 243.25626 344.7795 C 243.95096 344.7795 244.55677 344.8725 245.0737 345.05847 C 245.59062 345.24445 246.0296 345.46872 246.39062 345.7313 L 245.78344 346.66667 C 245.4607 346.4424 245.10105 346.2578 244.70446 346.11283 C 244.30788 345.96787 243.83062 345.8954 243.27267 345.8954 C 242.59437 345.8954 242.113 346.0007 241.82856 346.2113 C 241.54412 346.4219 241.4019 346.694 241.4019 347.0277 C 241.4019 347.2848 241.47164 347.49676 241.61113 347.6636 C 241.75062 347.83043 241.9872 347.9795 242.32087 348.11077 C 242.65455 348.24206 243.11403 348.387 243.69933 348.54565 C 244.26276 348.6988 244.75506 348.8793 245.17626 349.0872 C 245.59746 349.29505 245.9243 349.5672 246.15677 349.9036 C 246.38925 350.24 246.5055 350.67624 246.5055 351.2123 C 246.5055 351.82497 246.33045 352.32137 245.98036 352.70154 C 245.63027 353.0817 245.17763 353.35795 244.6224 353.53026 C 244.0672 353.70257 243.48053 353.78872 242.8624 353.78872 C 242.08018 353.78872 241.4142 353.6752 240.86446 353.4482 C 240.31472 353.2212 239.85387 352.94633 239.4819 352.6236 L 240.2696 351.71283 C 240.60874 351.9918 240.99848 352.21744 241.43882 352.38975 C 241.87917 352.56206 242.3537 352.6482 242.8624 352.6482 Z" fill="black"/>
        </g>
        <g id="Graphic_78">
          <path d="M 256.63062 353.16513 C 256.33523 353.36206 255.97694 353.5152 255.55574 353.6246 C 255.13455 353.73402 254.72156 353.78872 254.31677 353.78872 C 253.38685 353.78872 252.67028 353.5453 252.16703 353.05847 C 251.66378 352.57163 251.41215 351.9453 251.41215 351.1795 L 251.41215 346.02667 L 249.4265 346.02667 L 249.4265 344.96 L 251.41215 344.96 L 251.41215 342.99898 L 252.79062 342.83488 L 252.79062 344.96 L 255.77728 344.96 L 255.61318 346.02667 L 252.79062 346.02667 L 252.79062 351.1631 C 252.79062 351.64445 252.9178 352.01094 253.17215 352.26257 C 253.4265 352.5142 253.84907 352.64 254.43985 352.64 C 254.76258 352.64 255.0607 352.6017 255.3342 352.52513 C 255.6077 352.44855 255.86207 352.3501 256.09728 352.22975 Z" fill="black"/>
        </g>
        <g id="Graphic_79">
          <path d="M 262.90754 344.7795 C 264.12737 344.7795 265.04907 345.187 265.67267 346.00206 C 266.29626 346.8171 266.60805 347.90837 266.60805 349.2759 C 266.60805 350.1566 266.46583 350.93607 266.1814 351.61436 C 265.89694 352.29266 265.47848 352.8246 264.926 353.21026 C 264.37352 353.5959 263.69524 353.78872 262.89113 353.78872 C 261.6713 353.78872 260.74686 353.37847 260.1178 352.55795 C 259.48873 351.73744 259.1742 350.6489 259.1742 349.2923 C 259.1742 348.40615 259.31643 347.62257 259.60087 346.94154 C 259.88532 346.2605 260.30514 345.72992 260.86036 345.34975 C 261.41558 344.96958 262.09796 344.7795 262.90754 344.7795 Z M 262.90754 345.9036 C 262.1636 345.9036 261.60156 346.17983 261.2214 346.7323 C 260.8412 347.2848 260.65113 348.1381 260.65113 349.2923 C 260.65113 350.43557 260.83848 351.28205 261.21318 351.8318 C 261.58788 352.38155 262.1472 352.6564 262.89113 352.6564 C 263.63506 352.6564 264.19437 352.38018 264.56908 351.8277 C 264.94378 351.2752 265.13113 350.42463 265.13113 349.2759 C 265.13113 348.12718 264.94515 347.27796 264.57318 346.7282 C 264.2012 346.17846 263.646 345.9036 262.90754 345.9036 Z" fill="black"/>
        </g>
        <g id="Graphic_80">
          <path d="M 269.46344 353.6 L 269.46344 344.96 L 270.63677 344.96 L 270.74344 346.15795 C 271.09352 345.71487 271.53113 345.37437 272.05626 345.1364 C 272.5814 344.89847 273.09557 344.7795 273.59882 344.7795 C 274.4467 344.7795 275.06343 345.00376 275.44908 345.4523 C 275.83472 345.90086 276.02754 346.52445 276.02754 347.3231 L 276.02754 353.6 L 274.64908 353.6 L 274.64908 348.3405 C 274.64908 347.74975 274.61626 347.27385 274.5506 346.91283 C 274.48497 346.5518 274.34686 346.2865 274.13626 346.11693 C 273.92566 345.94735 273.6043 345.86257 273.17215 345.86257 C 272.833 345.86257 272.51438 345.9364 272.21626 346.0841 C 271.91814 346.2318 271.65284 346.4164 271.42036 346.63795 C 271.18788 346.8595 270.99506 347.0824 270.8419 347.30667 L 270.8419 353.6 Z" fill="black"/>
        </g>
      </g>
    </g>
  </g>
</svg>
