<?xml version="1.0" encoding="UTF-8" standalone="no"?>
<!DOCTYPE svg PUBLIC "-//W3C//DTD SVG 1.1//EN" "http://www.w3.org/Graphics/SVG/1.1/DTD/svg11.dtd">
<svg xmlns="http://www.w3.org/2000/svg" xmlns:xl="http://www.w3.org/1999/xlink" xmlns:dc="http://purl.org/dc/elements/1.1/" version="1.1" viewBox="274 394 239 70" width="239" height="70">
  <defs/>
  <g id="piston" stroke-dasharray="none" stroke="none" fill="none" stroke-opacity="1" fill-opacity="1">
    <title>piston</title>
    <rect fill="white" x="274" y="394" width="239" height="70"/>
    <g id="piston_device">
      <title>device</title>
      <g id="Group_74">
        <g id="Group_76">
          <g id="Line_86">
            <line x1="303.11265" y1="451.625" x2="295.11265" y2="459.2" stroke="black" stroke-linecap="butt" stroke-linejoin="miter" stroke-width="1"/>
          </g>
          <g id="Line_85">
            <line x1="303.11265" y1="444.05" x2="287.11265" y2="459.2" stroke="black" stroke-linecap="butt" stroke-linejoin="miter" stroke-width="1"/>
          </g>
          <g id="Line_84">
            <line x1="303.11265" y1="436.475" x2="279.11265" y2="459.2" stroke="black" stroke-linecap="butt" stroke-linejoin="miter" stroke-width="1"/>
          </g>
          <g id="Line_83">
            <line x1="303.11265" y1="428.9" x2="279.11265" y2="451.625" stroke="black" stroke-linecap="butt" stroke-linejoin="miter" stroke-width="1"/>
          </g>
          <g id="Line_82">
            <line x1="303.11265" y1="421.325" x2="279.11265" y2="444.05" stroke="black" stroke-linecap="butt" stroke-linejoin="miter" stroke-width="1"/>
          </g>
          <g id="Line_81">
            <line x1="303.11265" y1="413.75" x2="279.11265" y2="436.475" stroke="black" stroke-linecap="butt" stroke-linejoin="miter" stroke-width="1"/>
          </g>
          <g id="Line_80">
            <line x1="303.11265" y1="406.175" x2="279.11265" y2="428.9" stroke="black" stroke-linecap="butt" stroke-linejoin="miter" stroke-width="1"/>
          </g>
          <g id="Line_79">
            <line x1="303.11265" y1="398.6" x2="279.11265" y2="421.325" stroke="black" stroke-linecap="butt" stroke-linejoin="miter" stroke-width="1"/>
          </g>
          <g id="Line_78">
            <line x1="295.11265" y1="398.6" x2="279.11265" y2="413.75" stroke="black" stroke-linecap="butt" stroke-linejoin="miter" stroke-width="1"/>
          </g>
          <g id="Line_77">
            <line x1="287.11265" y1="398.6" x2="279.11265" y2="406.175" stroke="black" stroke-linecap="butt" stroke-linejoin="miter" stroke-width="1"/>
          </g>
        </g>
        <g id="Line_75">
          <line x1="303.11265" y1="459.2" x2="303.11265" y2="398.6" stroke="black" stroke-linecap="butt" stroke-linejoin="miter" stroke-width="1"/>
        </g>
      </g>
      <g id="Line_89">
        <path d="M 303.11265 429.22373 L 308.11265 429.22373 L 313.11265 417.22373 L 323.11265 441.22373 L 333.11265 417.22373 L 343.11265 441.22373 L 353.11265 417.22373 L 363.11265 441.22373 L 373.11265 417.22373 L 378.11266 429.22373 L 386.5293 429.22373" stroke="black" stroke-linecap="butt" stroke-linejoin="miter" stroke-width="1"/>
      </g>
      <g id="Graphic_70">
        <circle cx="489.5" cy="429.22373" r="17.5000279632832" stroke="black" stroke-linecap="round" stroke-linejoin="round" stroke-width="1"/>
      </g>
      <g id="Line_94">
        <path d="M 386.5293 429.22373 L 391.5293 429.22373 L 396.5293 441.22373 L 406.5293 417.22373 L 416.5293 441.22373 L 426.5293 417.22373 L 436.5293 441.22373 L 446.5293 417.22373 L 456.5293 441.22373 L 461.5293 429.22373 L 472 429.22373" stroke="black" stroke-linecap="butt" stroke-linejoin="miter" stroke-width="1"/>
      </g>
      <g id="Graphic_95">
        <circle cx="385.0293" cy="429.22373" r="1.50000239685288" fill="black"/>
        <circle cx="385.0293" cy="429.22373" r="1.50000239685288" stroke="black" stroke-linecap="round" stroke-linejoin="round" stroke-width="1"/>
      </g>
      <g id="Graphic_96">
        <circle cx="467.3677" cy="429.22373" r="1.50000239685289" fill="black"/>
        <circle cx="467.3677" cy="429.22373" r="1.50000239685289" stroke="black" stroke-linecap="round" stroke-linejoin="round" stroke-width="1"/>
      </g>
      <g id="Graphic_97">
        <circle cx="303.2383" cy="429.22373" r="1.50000239685288" fill="black"/>
        <circle cx="303.2383" cy="429.22373" r="1.50000239685288" stroke="black" stroke-linecap="round" stroke-linejoin="round" stroke-width="1"/>
      </g>
    </g>
    <g id="piston_text">
      <title>text</title>
      <g id="Group_101">
        <title>pe₁</title>
        <g id="Graphic_98">
          <path d="M 336.001 445.8153 C 336.67108 445.8153 337.20594 445.97806 337.6056 446.30353 C 338.00526 446.629 338.29364 447.0873 338.47073 447.6784 C 338.64783 448.2695 338.73637 448.95994 338.73637 449.7497 C 338.73637 450.5107 338.62988 451.18917 338.4169 451.78507 C 338.2039 452.38097 337.882 452.84883 337.45124 453.18866 C 337.02047 453.5285 336.47723 453.6984 335.8215 453.6984 C 334.99346 453.6984 334.32817 453.40644 333.8256 452.8225 L 333.8256 456.4266 L 332.61945 456.5774 L 332.61945 445.9733 L 333.6461 445.9733 L 333.74663 447.02866 C 334.02424 446.64096 334.3545 446.3418 334.7374 446.1312 C 335.1203 445.9206 335.5415 445.8153 336.001 445.8153 Z M 335.7138 446.78456 C 335.2974 446.78456 334.92885 446.9102 334.60817 447.1615 C 334.2875 447.41276 334.02663 447.69156 333.8256 447.9979 L 333.8256 451.7456 C 334.02184 452.03755 334.26953 452.2685 334.56868 452.4384 C 334.86783 452.6083 335.1969 452.6933 335.55586 452.6933 C 336.18287 452.6933 336.6543 452.45396 336.9702 451.9753 C 337.2861 451.4967 337.44406 450.7524 337.44406 449.7425 C 337.44406 447.77053 336.8673 446.78456 335.7138 446.78456 Z" fill="black"/>
        </g>
        <g id="Graphic_99">
          <path d="M 342.18253 450.18045 C 342.21603 451.05636 342.44697 451.69413 342.87535 452.0938 C 343.30372 452.49345 343.80987 452.6933 344.3938 452.6933 C 344.7815 452.6933 345.1309 452.63584 345.442 452.52097 C 345.75313 452.4061 346.0762 452.2362 346.41124 452.0112 L 346.97842 452.80815 C 346.629 453.08575 346.22697 453.30353 345.77227 453.4615 C 345.31757 453.61943 344.8533 453.6984 344.37945 453.6984 C 343.64235 453.6984 343.01655 453.5333 342.502 453.203 C 341.9875 452.87276 341.595 452.4121 341.32458 451.82097 C 341.05415 451.22985 340.91894 450.5442 340.91894 449.76404 C 340.91894 448.99823 341.05415 448.3186 341.32458 447.72507 C 341.595 447.13156 341.9779 446.6649 342.4733 446.32507 C 342.9687 445.98524 343.5514 445.8153 344.2215 445.8153 C 345.174 445.8153 345.92423 446.1456 346.47227 446.8061 C 347.0203 447.4666 347.2943 448.3712 347.2943 449.51994 C 347.2943 449.64917 347.29073 449.7712 347.28355 449.8861 C 347.27637 450.00097 347.2704 450.0991 347.2656 450.18045 Z M 344.23586 446.8061 C 343.67586 446.8061 343.2068 447.0047 342.8287 447.402 C 342.45056 447.79926 342.23757 448.4143 342.1897 449.2471 L 346.13124 449.2471 C 346.1169 448.43823 345.9398 447.8292 345.59996 447.41994 C 345.26013 447.0107 344.80543 446.8061 344.23586 446.8061 Z" fill="black"/>
        </g>
        <g id="Graphic_100">
          <path d="M 353.1528 456.30456 L 353.1528 452.87276 L 351.7743 453.6266 L 351.27176 452.90866 L 353.34663 451.6953 L 354.1579 451.6953 L 354.1579 456.30456 Z" fill="black"/>
        </g>
      </g>
      <g id="Group_105">
        <title>pe₂</title>
        <g id="Graphic_102">
          <path d="M 420.44466 445.8153 C 421.11475 445.8153 421.6496 445.97806 422.0493 446.30353 C 422.44894 446.629 422.7373 447.0873 422.9144 447.6784 C 423.0915 448.2695 423.18004 448.95994 423.18004 449.7497 C 423.18004 450.5107 423.07355 451.18917 422.86056 451.78507 C 422.64757 452.38097 422.3257 452.84883 421.8949 453.18866 C 421.46415 453.5285 420.9209 453.6984 420.26517 453.6984 C 419.43713 453.6984 418.77184 453.40644 418.2693 452.8225 L 418.2693 456.4266 L 417.0631 456.5774 L 417.0631 445.9733 L 418.0898 445.9733 L 418.1903 447.02866 C 418.4679 446.64096 418.79816 446.3418 419.18107 446.1312 C 419.564 445.9206 419.98517 445.8153 420.44466 445.8153 Z M 420.1575 446.78456 C 419.74107 446.78456 419.37253 446.9102 419.05184 447.1615 C 418.73115 447.41276 418.4703 447.69156 418.2693 447.9979 L 418.2693 451.7456 C 418.4655 452.03755 418.7132 452.2685 419.01235 452.4384 C 419.3115 452.6083 419.64056 452.6933 419.99953 452.6933 C 420.62654 452.6933 421.098 452.45396 421.4139 451.9753 C 421.7298 451.4967 421.88774 450.7524 421.88774 449.7425 C 421.88774 447.77053 421.311 446.78456 420.1575 446.78456 Z" fill="black"/>
        </g>
        <g id="Graphic_103">
          <path d="M 426.6262 450.18045 C 426.6597 451.05636 426.89064 451.69413 427.319 452.0938 C 427.7474 452.49345 428.25355 452.6933 428.8375 452.6933 C 429.2252 452.6933 429.57457 452.63584 429.8857 452.52097 C 430.1968 452.4061 430.51987 452.2362 430.8549 452.0112 L 431.4221 452.80815 C 431.0727 453.08575 430.67065 453.30353 430.21594 453.4615 C 429.76124 453.61943 429.29697 453.6984 428.8231 453.6984 C 428.086 453.6984 427.4602 453.5333 426.9457 453.203 C 426.43115 452.87276 426.0387 452.4121 425.76825 451.82097 C 425.4978 451.22985 425.3626 450.5442 425.3626 449.76404 C 425.3626 448.99823 425.4978 448.3186 425.76825 447.72507 C 426.0387 447.13156 426.4216 446.6649 426.91697 446.32507 C 427.41236 445.98524 427.9951 445.8153 428.66517 445.8153 C 429.61766 445.8153 430.3679 446.1456 430.91594 446.8061 C 431.464 447.4666 431.738 448.3712 431.738 449.51994 C 431.738 449.64917 431.7344 449.7712 431.7272 449.8861 C 431.72004 450.00097 431.71406 450.0991 431.7093 450.18045 Z M 428.67953 446.8061 C 428.11953 446.8061 427.65047 447.0047 427.27235 447.402 C 426.89423 447.79926 426.68124 448.4143 426.6334 449.2471 L 430.5749 449.2471 C 430.56056 448.43823 430.38347 447.8292 430.04363 447.41994 C 429.7038 447.0107 429.2491 446.8061 428.67953 446.8061 Z" fill="black"/>
        </g>
        <g id="Graphic_104">
          <path d="M 439.10415 453.1384 C 439.10415 453.43994 439.02637 453.7068 438.8708 453.9389 C 438.71526 454.17105 438.4604 454.4032 438.1062 454.6353 C 437.752 454.86746 437.2758 455.1343 436.6775 455.43584 L 439.24056 455.43584 L 439.1185 456.30456 L 435.14107 456.30456 L 435.14107 455.5507 C 435.9021 455.08643 436.4896 454.7203 436.90363 454.45225 C 437.31765 454.1842 437.60363 453.95687 437.7616 453.7702 C 437.91953 453.58353 437.9985 453.3849 437.9985 453.1743 C 437.9985 452.9589 437.9255 452.789 437.77953 452.66456 C 437.63355 452.5401 437.42415 452.4779 437.15133 452.4779 C 436.9168 452.4779 436.68466 452.52934 436.4549 452.63225 C 436.22517 452.73516 436.0026 452.91584 435.7872 453.1743 L 435.0621 452.6215 C 435.64603 451.9466 436.3544 451.60917 437.1872 451.60917 C 437.7999 451.60917 438.2725 451.75037 438.60517 452.03276 C 438.9378 452.31516 439.10415 452.6837 439.10415 453.1384 Z" fill="black"/>
        </g>
      </g>
      <g id="Group_108">
        <title>ke</title>
        <g id="Graphic_106">
          <path d="M 482.8518 423.76373 L 482.8518 434.5186 L 481.64564 434.5186 L 481.64564 423.9145 Z M 487.899 426.9586 L 484.4959 430.3617 L 488.29385 434.5186 L 486.7072 434.5186 L 482.9882 430.3904 L 486.33385 426.9586 Z" fill="black"/>
        </g>
        <g id="Graphic_107">
          <path d="M 491.12974 431.1658 C 491.16325 432.0417 491.3942 432.67946 491.82256 433.0791 C 492.25094 433.4788 492.7571 433.6786 493.341 433.6786 C 493.7287 433.6786 494.0781 433.62117 494.38923 433.5063 C 494.70034 433.3914 495.0234 433.2215 495.35846 432.99655 L 495.92564 433.7935 C 495.57624 434.0711 495.1742 434.28886 494.7195 434.4468 C 494.2648 434.60476 493.8005 434.68373 493.32667 434.68373 C 492.58957 434.68373 491.96376 434.5186 491.44923 434.18835 C 490.9347 433.8581 490.5422 433.3974 490.2718 432.8063 C 490.00137 432.2152 489.86615 431.52955 489.86615 430.7494 C 489.86615 429.98356 490.00137 429.3039 490.2718 428.7104 C 490.5422 428.1169 490.9251 427.65023 491.4205 427.3104 C 491.9159 426.97057 492.4986 426.80066 493.1687 426.80066 C 494.1212 426.80066 494.87145 427.1309 495.4195 427.79143 C 495.9675 428.45194 496.24154 429.35655 496.24154 430.50527 C 496.24154 430.6345 496.23795 430.75655 496.23077 430.87143 C 496.2236 430.9863 496.2176 431.0844 496.2128 431.1658 Z M 493.1831 427.79143 C 492.6231 427.79143 492.154 427.99006 491.7759 428.3873 C 491.3978 428.7846 491.1848 429.39963 491.1369 430.23245 L 495.07846 430.23245 C 495.0641 429.42356 494.887 428.8145 494.5472 428.40527 C 494.20735 427.99604 493.75265 427.79143 493.1831 427.79143 Z" fill="black"/>
        </g>
      </g>
    </g>
  </g>
</svg>
