<?xml version="1.0" encoding="UTF-8" standalone="no"?>
<!DOCTYPE svg PUBLIC "-//W3C//DTD SVG 1.1//EN" "http://www.w3.org/Graphics/SVG/1.1/DTD/svg11.dtd">
<svg xmlns:xl="http://www.w3.org/1999/xlink" xmlns="http://www.w3.org/2000/svg" xmlns:dc="http://purl.org/dc/elements/1.1/" version="1.1" viewBox="20 320 560 260" width="560" height="260">
  <defs/>
  <g id="EPHS" fill-opacity="1" stroke="none" stroke-opacity="1" fill="none" stroke-dasharray="none">
    <title>EPHS</title>
    <rect fill="white" x="20" y="320" width="560" height="260"/>
    <g id="EPHS_outer_box">
      <title>outer_box</title>
      <g id="Graphic_13">
        <title>Rectangle</title>
        <rect x="25" y="325" width="550" height="249.99997" fill="white"/>
        <rect x="25" y="325" width="550" height="249.99997" stroke="black" stroke-linecap="round" stroke-linejoin="round" stroke-width="3"/>
      </g>
    </g>
    <g id="EPHS_text">
      <title>text</title>
      <g id="Group_29">
        <title>EPHS.jl</title>
        <g id="Graphic_22">
          <path d="M 338.9854 483.99405 L 338.9854 487.5099 L 310.40882 487.5099 L 310.40882 506.888 L 329.54163 506.888 L 329.54163 510.40387 L 310.40882 510.40387 L 310.40882 534.6878 L 338.9854 534.6878 L 338.9854 538.20367 L 301.29212 538.20367 L 301.29212 483.99405 Z" fill="black"/>
        </g>
        <g id="Graphic_23">
          <path d="M 349.6965 483.99405 L 366.86695 483.99405 C 369.70145 483.99405 372.35876 484.33473 374.83895 485.0161 C 377.31914 485.6975 379.47905 486.6991 381.31876 488.02094 C 383.15846 489.3428 384.60294 490.96444 385.65225 492.8859 C 386.70157 494.80737 387.2262 497.00816 387.2262 499.48835 C 387.2262 501.9413 386.7152 504.08076 385.69314 505.90684 C 384.6711 507.7329 383.322 509.24553 381.6458 510.44475 C 379.96964 511.64396 378.06864 512.53654 375.94277 513.1225 C 373.8169 513.7085 371.65016 514.0015 369.4425 514.0015 C 368.4886 514.0015 367.4938 513.98105 366.45813 513.94016 C 365.42244 513.8993 364.42766 513.83796 363.47374 513.7562 C 362.5198 513.6744 361.63405 513.57904 360.8164 513.47 C 359.99876 513.361 359.33102 513.252 358.8132 513.14296 L 358.8132 538.20367 L 349.6965 538.20367 Z M 358.8132 510.0768 C 359.84887 510.4311 360.95267 510.7241 362.12463 510.9558 C 363.2966 511.18744 364.4958 511.3033 365.72225 511.3033 C 367.6846 511.3033 369.40163 511.0103 370.8734 510.4243 C 372.34515 509.8383 373.5716 509.0343 374.55278 508.01226 C 375.53395 506.9902 376.263 505.791 376.73997 504.41464 C 377.21693 503.0383 377.4554 501.57335 377.4554 500.0198 C 377.4554 498.19375 377.14198 496.54485 376.5151 495.0731 C 375.88825 493.60133 375.02292 492.3408 373.9191 491.2915 C 372.8153 490.2422 371.5207 489.43137 370.0353 488.859 C 368.5499 488.28667 366.96235 488.0005 365.27255 488.0005 L 358.8132 488.0005 Z" fill="black"/>
        </g>
        <g id="Graphic_24">
          <path d="M 407.21754 512.2027 L 407.21754 538.20367 L 398.10084 538.20367 L 398.10084 483.99405 L 407.21754 483.99405 L 407.21754 508.6868 L 434.445 508.6868 L 434.445 483.99405 L 443.5617 483.99405 L 443.5617 538.20367 L 434.445 538.20367 L 434.445 512.2027 Z" fill="black"/>
        </g>
        <g id="Graphic_25">
          <path d="M 476.06293 536.0369 C 477.3984 536.0369 478.72026 535.85295 480.0285 535.485 C 481.3367 535.1171 482.50867 534.572 483.54435 533.8497 C 484.58003 533.1275 485.4113 532.2417 486.03816 531.1924 C 486.665 530.1431 486.97844 528.92345 486.97844 527.53345 C 486.97844 525.8709 486.5492 524.39235 485.69066 523.09775 C 484.83213 521.80314 483.7079 520.6176 482.3179 519.541 C 480.9279 518.46444 479.3403 517.4492 477.55513 516.4953 C 475.76994 515.5414 473.9507 514.58747 472.0974 513.63355 C 470.24404 512.6796 468.4248 511.678 466.6396 510.6287 C 464.8544 509.5794 463.26686 508.40746 461.87686 507.11286 C 460.48686 505.81825 459.3626 504.37377 458.5041 502.77936 C 457.64556 501.18495 457.2163 499.3521 457.2163 497.2807 C 457.2163 495.20936 457.6047 493.2879 458.38144 491.51635 C 459.1582 489.7448 460.2961 488.2117 461.7951 486.9171 C 463.2941 485.6225 465.1406 484.6073 467.3346 483.8714 C 469.52863 483.1355 472.04285 482.7676 474.87735 482.7676 C 477.4393 482.7676 479.7287 483.04014 481.74554 483.58523 C 483.7624 484.13033 485.53394 484.93434 487.0602 485.9973 C 488.5865 487.0602 489.88107 488.3684 490.944 489.92195 C 492.00694 491.4755 492.86546 493.2743 493.5196 495.3184 L 488.859 497.44425 C 488.3139 495.7817 487.61893 494.2623 486.77403 492.8859 C 485.92913 491.50953 484.9207 490.3308 483.74876 489.3496 C 482.5768 488.36843 481.2209 487.6121 479.681 487.08065 C 478.1411 486.5492 476.4036 486.28345 474.46853 486.28345 C 472.7515 486.28345 471.2525 486.5219 469.9715 486.9989 C 468.69053 487.47584 467.6208 488.1027 466.76226 488.87946 C 465.90374 489.6562 465.26326 490.52836 464.8408 491.4959 C 464.41836 492.46346 464.20714 493.45143 464.20714 494.45986 C 464.20714 495.8771 464.6432 497.1785 465.51536 498.3641 C 466.3875 499.5497 467.54583 500.6671 468.99034 501.7164 C 470.43484 502.76574 472.0769 503.78097 473.9166 504.76214 C 475.7563 505.7433 477.63007 506.7381 479.5379 507.74653 C 481.44575 508.75496 483.3195 509.80426 485.1592 510.89445 C 486.9989 511.98464 488.641 513.177 490.0855 514.4716 C 491.53 515.76624 492.6883 517.18347 493.56046 518.72336 C 494.4326 520.26326 494.8687 521.9871 494.8687 523.89495 C 494.8687 526.0481 494.45987 528.0717 493.6422 529.96593 C 492.8246 531.86014 491.5981 533.50904 489.96283 534.91266 C 488.32754 536.3163 486.2971 537.4269 483.8714 538.24455 C 481.4457 539.0622 478.6249 539.471 475.4088 539.471 C 472.79236 539.471 470.4621 539.18484 468.418 538.6125 C 466.3739 538.04014 464.56827 537.2089 463.0011 536.1187 C 461.43396 535.0285 460.0917 533.69983 458.97423 532.1327 C 457.8568 530.5655 456.94376 528.77355 456.23513 526.7567 L 461.1001 524.7535 C 461.67245 526.52503 462.4424 528.1058 463.40994 529.4958 C 464.3775 530.8858 465.50173 532.06454 466.7827 533.0321 C 468.0637 533.99963 469.4877 534.7423 471.0549 535.26016 C 472.62203 535.778 474.29137 536.0369 476.06293 536.0369 Z" fill="black"/>
        </g>
        <g id="Graphic_26">
          <path d="M 509.1365 530.8449 C 509.7361 530.8449 510.3085 530.9607 510.85357 531.1924 C 511.39866 531.42406 511.8756 531.7307 512.28444 532.11224 C 512.69326 532.4938 513.0135 532.9503 513.24517 533.4818 C 513.47683 534.01326 513.59267 534.56516 513.59267 535.1375 C 513.59267 535.7644 513.47683 536.3367 513.24517 536.85456 C 513.0135 537.3724 512.69326 537.8289 512.28444 538.2241 C 511.8756 538.6193 511.39866 538.9259 510.85357 539.14395 C 510.3085 539.362 509.7361 539.471 509.1365 539.471 C 508.50966 539.471 507.9237 539.362 507.3786 539.14395 C 506.8335 538.9259 506.35654 538.6193 505.9477 538.2241 C 505.5389 537.8289 505.21866 537.3724 504.987 536.85456 C 504.7553 536.3367 504.6395 535.7644 504.6395 535.1375 C 504.6395 534.56516 504.7553 534.01326 504.987 533.4818 C 505.21866 532.9503 505.5389 532.4938 505.9477 532.11224 C 506.35654 531.7307 506.8335 531.42406 507.3786 531.1924 C 507.9237 530.9607 508.50966 530.8449 509.1365 530.8449 Z" fill="black"/>
        </g>
        <g id="Graphic_27">
          <path d="M 513.63355 548.9965 C 514.0424 549.7324 514.5125 550.4274 515.044 551.0815 C 515.57545 551.7356 516.18186 552.308 516.86323 552.79856 C 517.5446 553.28915 518.3009 553.6775 519.1322 553.9637 C 519.96346 554.2499 520.8833 554.39296 521.8917 554.39296 C 522.54584 554.39296 523.1386 554.2771 523.6701 554.04547 C 524.20156 553.8138 524.65126 553.4254 525.0192 552.8803 C 525.38714 552.3352 525.6733 551.613 525.8777 550.7136 C 526.08214 549.8142 526.18434 548.6831 526.18434 547.32037 L 526.18434 497.93484 L 532.07136 495.5637 L 534.4425 495.5637 L 534.4425 538.20367 C 534.4425 542.37366 534.06096 545.72595 533.2978 548.26065 C 532.5347 550.79535 531.4786 552.74405 530.12946 554.1068 C 528.78035 555.4695 527.17915 556.37574 525.3258 556.82545 C 523.4725 557.27515 521.44203 557.5 519.2344 557.5 C 517.1903 557.5 515.2075 557.07074 513.28605 556.2122 C 511.3646 555.3537 509.7225 554.22944 508.35976 552.83944 Z M 525.5711 480.31467 C 525.5711 479.66055 525.69375 479.0473 525.93905 478.475 C 526.18434 477.9026 526.525 477.3984 526.9611 476.96234 C 527.3972 476.52626 527.9014 476.1856 528.47374 475.9403 C 529.0461 475.695 529.6593 475.57235 530.3134 475.57235 C 530.96755 475.57235 531.5808 475.695 532.1531 475.9403 C 532.7255 476.1856 533.2297 476.52626 533.66576 476.96234 C 534.10184 477.3984 534.4425 477.9026 534.6878 478.475 C 534.9331 479.0473 535.05575 479.66055 535.05575 480.31467 C 535.05575 480.9688 534.9331 481.582 534.6878 482.15436 C 534.4425 482.7267 534.10184 483.2309 533.66576 483.667 C 533.2297 484.1031 532.7255 484.44375 532.1531 484.68905 C 531.5808 484.93434 530.96755 485.057 530.3134 485.057 C 529.6593 485.057 529.0461 484.93434 528.47374 484.68905 C 527.9014 484.44375 527.3972 484.1031 526.9611 483.667 C 526.525 483.2309 526.18434 482.7267 525.93905 482.15436 C 525.69375 481.582 525.5711 480.9688 525.5711 480.31467 Z" fill="black"/>
        </g>
        <g id="Graphic_28">
          <path d="M 557.5 538.20367 L 549.16006 538.20367 L 549.16006 477.37116 L 555.08796 475 L 557.5 475 Z" fill="black"/>
        </g>
      </g>
    </g>
    <g id="EPHS_ports">
      <title>ports</title>
      <g id="Line_33">
        <line x1="406" y1="400" x2="442.49997" y2="400" stroke="black" stroke-linecap="butt" stroke-linejoin="round" stroke-width="3"/>
      </g>
      <g id="Line_8">
        <line x1="157.50003" y1="400" x2="194" y2="400" stroke="black" stroke-linecap="butt" stroke-linejoin="round" stroke-width="3"/>
      </g>
      <g id="Line_36">
        <line x1="206" y1="400" x2="242.49997" y2="400" stroke="black" stroke-linecap="round" stroke-linejoin="round" stroke-width="3"/>
      </g>
      <g id="Line_37">
        <line x1="200" y1="394" x2="200" y2="325" stroke="black" stroke-linecap="round" stroke-linejoin="round" stroke-width="3"/>
      </g>
      <g id="Line_40">
        <line x1="357.50003" y1="400" x2="394" y2="400" stroke="black" stroke-linecap="butt" stroke-linejoin="round" stroke-width="3"/>
      </g>
      <g id="Line_41">
        <line x1="200" y1="400.00003" x2="200" y2="442.5" stroke="black" stroke-linecap="butt" stroke-linejoin="round" stroke-width="3"/>
      </g>
    </g>
    <g id="EPHS_junctions">
      <title>junctions</title>
      <g id="Graphic_31">
        <title>j</title>
        <circle cx="400" cy="400" r="6.00000958741139" fill="black"/>
        <circle cx="400" cy="400" r="6.00000958741139" stroke="black" stroke-linecap="round" stroke-linejoin="round" stroke-width="1"/>
      </g>
      <g id="Graphic_12">
        <title>j</title>
        <circle cx="200" cy="400" r="6.00000958741139" fill="black"/>
        <circle cx="200" cy="400" r="6.00000958741139" stroke="black" stroke-linecap="round" stroke-linejoin="round" stroke-width="1"/>
      </g>
    </g>
    <g id="EPHS_inner_boxes">
      <title>inner_boxes</title>
      <g id="Graphic_14">
        <circle cx="100" cy="400" r="57.500091879359" fill="#4063d8"/>
        <circle cx="100" cy="400" r="57.500091879359" stroke="black" stroke-linecap="round" stroke-linejoin="round" stroke-width="1"/>
      </g>
      <g id="Graphic_15">
        <circle cx="200" cy="500" r="57.500091879359" fill="#389826"/>
        <circle cx="200" cy="500" r="57.500091879359" stroke="black" stroke-linecap="round" stroke-linejoin="round" stroke-width="1"/>
      </g>
      <g id="Graphic_16">
        <circle cx="300" cy="400" r="57.500091879359" fill="#cb3c33"/>
        <circle cx="300" cy="400" r="57.500091879359" stroke="black" stroke-linecap="round" stroke-linejoin="round" stroke-width="1"/>
      </g>
      <g id="Graphic_17">
        <circle cx="500" cy="400" r="57.500091879359" fill="#9558b2"/>
        <circle cx="500" cy="400" r="57.500091879359" stroke="black" stroke-linecap="round" stroke-linejoin="round" stroke-width="1"/>
      </g>
    </g>
  </g>
</svg>
